<svg enable-background="new 0 0 512 512" viewBox="0 0 512 512" xmlns="http://www.w3.org/2000/svg" xmlns:xlink="http://www.w3.org/1999/xlink"><linearGradient id="SVGID_1_" gradientUnits="userSpaceOnUse" x1="22.679" x2="452.77" y1="490.432" y2="60.34"><stop offset="0" stop-color="#f00"/><stop offset="1" stop-color="#f6b138"/></linearGradient><g id="_x33_0_magnifying_glass"><g><path d="m193.256 60.351c-64.133 64.133-70.749 164.287-19.928 235.884l-28.44 28.443c-12.094-7.472-28.18-5.994-38.654 4.484l-83.557 83.557c-21.468 21.468-21.489 56.234 0 77.712 21.444 21.444 56.183 21.501 77.679.03.011-.011.027-.014.038-.025 17.19-17.192-43.711 43.716 83.552-83.561 10.603-10.595 11.935-26.654 4.489-38.655l28.441-28.441c72.175 51.221 172.188 43.78 235.88-19.921 71.552-71.552 71.552-187.977 0-259.53-71.615-71.627-187.769-71.708-259.5.023zm-96.332 419.683-63.841-63.841 43.178-43.183 63.844 63.844zm-67.316 3.466c-16.447-16.437-17.595-42.415-3.268-60.188l63.456 63.456c-17.466 14.085-43.487 13.433-60.188-3.268zm147.408-83.557-29.98 29.98-63.851-63.851 29.98-29.98c8.408-8.408 22.088-8.415 30.503-.001.532.532 34.899 34.904 33.348 33.353 8.414 8.414 8.446 22.053 0 30.499zm5.097-39.263c-.582-.582-30.78-30.785-29.681-29.685l26.838-26.841c4.313 5.427 8.939 10.686 13.956 15.703 5.025 5.026 10.293 9.66 15.73 13.98zm263.713-47.754c-67.728 67.728-177.94 67.728-245.668 0-67.714-67.718-67.704-177.911.029-245.644 67.798-67.799 177.741-67.922 245.639-.025 67.733 67.733 67.733 177.936 0 245.669zm-219.271-219.271c-53.182 53.187-53.192 139.721-.019 192.898 53.185 53.185 139.728 53.189 192.917 0 53.187-53.187 53.187-139.73 0-192.917-53.177-53.178-139.711-53.168-192.898.019zm185.967 185.967c-49.367 49.362-129.688 49.358-179.055 0-49.348-49.358-49.343-129.669.019-179.036 49.337-49.337 129.658-49.397 179.036-.019 49.368 49.366 49.368 129.687 0 179.055zm-84.624-176.696c0 2.709-2.192 4.901-4.901 4.901-45.356 0-82.26 36.913-82.26 82.288 0 2.709-2.192 4.901-4.901 4.901s-4.901-2.192-4.901-4.901c0-50.779 41.297-92.091 92.062-92.091 2.709.001 4.901 2.193 4.901 4.902z" fill="url(#SVGID_1_)"/></g></g><g id="Layer_1"/></svg>